<svg width="32" height="32" viewBox="0 0 32 32" fill="none" xmlns="http://www.w3.org/2000/svg">
<path d="M22.5013 27.0967V22.9787C22.5008 22.7893 22.5382 22.6017 22.6112 22.427C22.6843 22.2523 22.7915 22.094 22.9267 21.9613C23.5667 21.3327 24.854 20.0627 26.252 18.6473L26.246 18.644C27.1415 17.8016 27.7851 16.7269 28.1051 15.5399C28.425 14.3529 28.4087 13.1003 28.058 11.922C27.7072 10.7437 27.0358 9.68609 26.1187 8.86731C25.2017 8.04854 24.075 7.50082 22.8647 7.28532C22.2755 7.18167 21.7512 6.84929 21.406 6.36065C20.7929 5.49794 19.9823 4.79449 19.0418 4.30906C18.1014 3.82364 17.0584 3.57034 16 3.57034C14.9417 3.57034 13.8987 3.82364 12.9582 4.30906C12.0177 4.79449 11.2071 5.49794 10.594 6.36065C10.2489 6.84929 9.72454 7.18167 9.13535 7.28532C7.92494 7.50072 6.79824 8.04837 5.88108 8.86711C4.96393 9.68584 4.29244 10.7434 3.9416 11.9217C3.59077 13.1 3.5744 14.3527 3.89433 15.5397C4.21426 16.7268 4.8579 17.8016 5.75335 18.644L5.74668 18.6473C6.84712 19.7604 7.95582 20.8654 9.07268 21.962C9.20775 22.0946 9.31496 22.2528 9.388 22.4274C9.46104 22.602 9.49844 22.7894 9.49801 22.9787V27.0967C9.49801 27.4503 9.63849 27.7894 9.88854 28.0395C10.1386 28.2895 10.4777 28.43 10.8313 28.43H21.1673C21.521 28.43 21.8601 28.2895 22.1102 28.0395C22.3602 27.7894 22.5013 27.4503 22.5013 27.0967Z" stroke="#082F49" stroke-width="0.666667" stroke-linecap="round" stroke-linejoin="round"/>
<path d="M18.854 28.43V14.1613C18.854 13.7866 18.7802 13.4155 18.6367 13.0693C18.4933 12.723 18.2831 12.4085 18.018 12.1435C17.753 11.8785 17.4384 11.6684 17.0921 11.525C16.7459 11.3817 16.3748 11.3079 16 11.308C15.6252 11.3079 15.2541 11.3817 14.9079 11.525C14.5616 11.6684 14.247 11.8785 13.982 12.1435C13.7169 12.4085 13.5067 12.723 13.3633 13.0693C13.2198 13.4155 13.146 13.7866 13.146 14.1613V28.43" stroke="#082F49" stroke-width="0.666667" stroke-linecap="round" stroke-linejoin="round"/>
</svg>
